# xmcd
#
# Track frame offsets: 
#        150
#        32374
#        65407
#        73754
#        107364
#        136574
#        145297
#        173290
#        188833
#
# Disc length: 2756 seconds
#
# Revision: 1
# Processed by: cddbd v1.5.2PL0 Copyright (c) Steve Scherf et al.
# Submitted via: ExactAudioCopy v1.0b3
#
DISCID=6c0ac209
DTITLE=Oktoposse - Possenballett
DYEAR=2004
DGENRE=Jazz
TTITLE0=Virus
TTITLE1=Ende eines Sommers
TTITLE2=Position I
TTITLE3=Possenballett
TTITLE4=Schnee
TTITLE5=Position II
TTITLE6=Kri Kra
TTITLE7=Luftstand
TTITLE8=Alanis
EXTD=
EXTT0=
EXTT1=
EXTT2=
EXTT3=
EXTT4=
EXTT5=
EXTT6=
EXTT7=
EXTT8=
PLAYORDER=
